<?xml version="1.0" encoding="UTF-8"?>
<svg width="700pt" height="700pt" version="1.1" viewBox="0 0 700 700" xmlns="http://www.w3.org/2000/svg" xmlns:xlink="http://www.w3.org/1999/xlink">
 <defs>
  <symbol id="f" overflow="visible">
   <path d="m3.75-0.21875c-0.19922 0.09375-0.40234 0.16797-0.60938 0.21875-0.21094 0.050781-0.42969 0.078125-0.65625 0.078125-0.67969 0-1.2148-0.1875-1.6094-0.5625-0.39844-0.38281-0.59375-0.89844-0.59375-1.5469 0-0.65625 0.19531-1.1719 0.59375-1.5469 0.39453-0.38281 0.92969-0.57812 1.6094-0.57812 0.22656 0 0.44531 0.027344 0.65625 0.078125 0.20703 0.054687 0.41016 0.13281 0.60938 0.23438v0.84375c-0.19922-0.13281-0.39062-0.23438-0.57812-0.29688s-0.38672-0.09375-0.59375-0.09375c-0.375 0-0.67188 0.12109-0.89062 0.35938-0.21875 0.24219-0.32812 0.57422-0.32812 1 0 0.41797 0.10938 0.74609 0.32812 0.98438 0.21875 0.24219 0.51562 0.35938 0.89062 0.35938 0.20703 0 0.40625-0.03125 0.59375-0.09375s0.37891-0.15625 0.57812-0.28125z"/>
  </symbol>
  <symbol id="c" overflow="visible">
   <path d="m2.75-2.2188c-0.09375-0.039062-0.18359-0.070312-0.26562-0.09375-0.085937-0.019531-0.16797-0.03125-0.25-0.03125-0.25 0-0.44531 0.085938-0.57812 0.25-0.13672 0.15625-0.20312 0.38672-0.20312 0.6875v1.4062h-0.98438v-3.0625h0.98438v0.5c0.125-0.19531 0.26562-0.34375 0.42188-0.4375 0.16406-0.09375 0.36328-0.14062 0.59375-0.14062 0.03125 0 0.0625 0.007813 0.09375 0.015625 0.039062 0 0.097656 0.007812 0.17188 0.015625z"/>
  </symbol>
  <symbol id="a" overflow="visible">
   <path d="m3.5156-1.5312v0.26562h-2.2812c0.019531 0.23047 0.10156 0.40234 0.25 0.51562 0.14453 0.11719 0.34375 0.17188 0.59375 0.17188 0.20703 0 0.41406-0.023437 0.625-0.078125 0.21875-0.0625 0.44141-0.15625 0.67188-0.28125v0.75c-0.23047 0.09375-0.46094 0.16406-0.6875 0.20312-0.23047 0.039062-0.46484 0.0625-0.70312 0.0625-0.55469 0-0.98438-0.14062-1.2969-0.42188-0.30469-0.28125-0.45312-0.67578-0.45312-1.1875 0-0.5 0.14844-0.89062 0.45312-1.1719 0.30078-0.28906 0.71875-0.4375 1.25-0.4375 0.47656 0 0.85938 0.14844 1.1406 0.4375 0.28906 0.29297 0.4375 0.68359 0.4375 1.1719zm-1-0.32812c0-0.1875-0.058594-0.33594-0.17188-0.45312-0.10547-0.11328-0.24219-0.17188-0.40625-0.17188-0.19922 0-0.35547 0.058594-0.46875 0.17188-0.11719 0.10547-0.1875 0.25781-0.21875 0.45312z"/>
  </symbol>
  <symbol id="k" overflow="visible">
   <path d="m1.8438-1.375c-0.21094 0-0.36719 0.039062-0.46875 0.10938-0.10547 0.0625-0.15625 0.16406-0.15625 0.29688 0 0.125 0.039062 0.22656 0.125 0.29688 0.082031 0.0625 0.20312 0.09375 0.35938 0.09375 0.17578 0 0.32812-0.0625 0.45312-0.1875 0.125-0.13281 0.1875-0.30078 0.1875-0.5v-0.10938zm1.4844-0.375v1.75h-0.98438v-0.45312c-0.125 0.1875-0.27344 0.32422-0.4375 0.40625-0.16797 0.082031-0.36719 0.125-0.59375 0.125-0.32422 0-0.58594-0.085938-0.78125-0.26562-0.19922-0.1875-0.29688-0.42969-0.29688-0.73438 0-0.35156 0.125-0.61328 0.375-0.78125 0.25-0.16406 0.63281-0.25 1.1562-0.25h0.57812v-0.078125c0-0.15625-0.0625-0.26953-0.1875-0.34375-0.11719-0.070312-0.30469-0.10938-0.5625-0.10938-0.21094 0-0.40625 0.023437-0.59375 0.0625-0.17969 0.042969-0.33984 0.10547-0.48438 0.1875v-0.75c0.20703-0.039063 0.41406-0.078125 0.625-0.10938 0.20703-0.03125 0.41406-0.046875 0.625-0.046875 0.55078 0 0.94531 0.10938 1.1875 0.32812 0.25 0.21875 0.375 0.57422 0.375 1.0625z"/>
  </symbol>
  <symbol id="b" overflow="visible">
   <path d="m1.5312-3.9219v0.85938h1.0156v0.70312h-1.0156v1.2969c0 0.14844 0.023438 0.24609 0.078125 0.29688 0.0625 0.042969 0.17578 0.0625 0.34375 0.0625h0.5v0.70312h-0.82812c-0.38672 0-0.66406-0.078125-0.82812-0.23438-0.15625-0.16406-0.23438-0.44141-0.23438-0.82812v-1.2969h-0.48438v-0.70312h0.48438v-0.85938z"/>
  </symbol>
  <symbol id="j" overflow="visible">
   <path d="m2.5469-2.6094v-1.6406h0.98438v4.25h-0.98438v-0.4375c-0.13672 0.17969-0.28906 0.30859-0.45312 0.39062-0.15625 0.082031-0.33984 0.125-0.54688 0.125-0.375 0-0.6875-0.14453-0.9375-0.4375-0.24219-0.30078-0.35938-0.69141-0.35938-1.1719 0-0.46875 0.11719-0.85156 0.35938-1.1562 0.25-0.30078 0.5625-0.45312 0.9375-0.45312 0.20703 0 0.39062 0.046875 0.54688 0.14062 0.16406 0.085938 0.31641 0.21484 0.45312 0.39062zm-0.64062 1.9844c0.20703 0 0.36328-0.078125 0.46875-0.23438 0.11328-0.15625 0.17188-0.37891 0.17188-0.67188 0-0.28906-0.058594-0.50781-0.17188-0.65625-0.10547-0.15625-0.26172-0.23438-0.46875-0.23438-0.21094 0-0.37109 0.078125-0.48438 0.23438-0.10547 0.14844-0.15625 0.36719-0.15625 0.65625 0 0.29297 0.050781 0.51562 0.15625 0.67188 0.11328 0.15625 0.27344 0.23438 0.48438 0.23438z"/>
  </symbol>
  <symbol id="i" overflow="visible">
   <path d="m2.0938-0.625c0.20703 0 0.36719-0.078125 0.48438-0.23438 0.11328-0.15625 0.17188-0.37891 0.17188-0.67188 0-0.28906-0.058594-0.50781-0.17188-0.65625-0.11719-0.15625-0.27734-0.23438-0.48438-0.23438-0.21094 0-0.37109 0.078125-0.48438 0.23438-0.10547 0.14844-0.15625 0.36719-0.15625 0.65625 0 0.29297 0.050781 0.51562 0.15625 0.67188 0.11328 0.15625 0.27344 0.23438 0.48438 0.23438zm-0.64062-1.9844c0.13281-0.17578 0.28125-0.30469 0.4375-0.39062 0.16406-0.09375 0.35156-0.14062 0.5625-0.14062 0.38281 0 0.69531 0.15234 0.9375 0.45312 0.23828 0.30469 0.35938 0.6875 0.35938 1.1562 0 0.48047-0.12109 0.87109-0.35938 1.1719-0.24219 0.29297-0.55469 0.4375-0.9375 0.4375-0.21094 0-0.39844-0.042969-0.5625-0.125-0.15625-0.082031-0.30469-0.21094-0.4375-0.39062v0.4375h-0.98438v-4.25h0.98438z"/>
  </symbol>
  <symbol id="h" overflow="visible">
   <path d="m0.0625-3.0625h0.98438l0.82812 2.0781 0.6875-2.0781h0.98438l-1.2812 3.3594c-0.13672 0.33203-0.29297 0.56641-0.46875 0.70312-0.16797 0.13281-0.39062 0.20312-0.67188 0.20312h-0.5625v-0.64062h0.29688c0.16406 0 0.28516-0.027344 0.35938-0.078125 0.082031-0.054687 0.14453-0.14844 0.1875-0.28125l0.03125-0.078125z"/>
  </symbol>
  <symbol id="g" overflow="visible">
   <path d="m0.51562-4.0781h1.0469v1.5469h1.5469v-1.5469h1.0625v4.0781h-1.0625v-1.7344h-1.5469v1.7344h-1.0469z"/>
  </symbol>
  <symbol id="e" overflow="visible">
   <path d="m0.51562-4.0781h1.75c0.50781 0 0.90625 0.11719 1.1875 0.34375 0.28125 0.23047 0.42188 0.55859 0.42188 0.98438 0 0.42969-0.14062 0.75781-0.42188 0.98438-0.28125 0.23047-0.67969 0.34375-1.1875 0.34375h-0.70312v1.4219h-1.0469zm1.0469 0.76562v1.1406h0.57812c0.20703 0 0.36328-0.046875 0.46875-0.14062 0.11328-0.10156 0.17188-0.25 0.17188-0.4375 0-0.17578-0.058594-0.3125-0.17188-0.40625-0.10547-0.10156-0.26172-0.15625-0.46875-0.15625z"/>
  </symbol>
  <symbol id="u" overflow="visible">
   <path d="m0.65625-0.71875h0.92188v-2.6406l-0.95312 0.1875v-0.70312l0.95312-0.20312h1v3.3594h0.92188v0.71875h-2.8438z"/>
  </symbol>
  <symbol id="t" overflow="visible">
   <path d="m1.9531-1.8281c-0.19922 0-0.35547 0.058594-0.46875 0.17188-0.10547 0.10547-0.15625 0.25781-0.15625 0.45312 0 0.19922 0.050781 0.35547 0.15625 0.46875 0.11328 0.10547 0.26953 0.15625 0.46875 0.15625 0.1875 0 0.33203-0.050781 0.4375-0.15625 0.10156-0.11328 0.15625-0.26953 0.15625-0.46875 0-0.19531-0.054687-0.34766-0.15625-0.45312-0.10547-0.11328-0.25-0.17188-0.4375-0.17188zm-0.76562-0.34375c-0.25-0.070313-0.4375-0.1875-0.5625-0.34375s-0.1875-0.34766-0.1875-0.57812c0-0.34375 0.125-0.60156 0.375-0.78125 0.25781-0.1875 0.64062-0.28125 1.1406-0.28125 0.48828 0 0.85938 0.09375 1.1094 0.28125 0.25781 0.17969 0.39062 0.4375 0.39062 0.78125 0 0.23047-0.0625 0.42188-0.1875 0.57812s-0.3125 0.27344-0.5625 0.34375c0.28125 0.074219 0.48828 0.19922 0.625 0.375 0.14453 0.16797 0.21875 0.38672 0.21875 0.65625 0 0.39844-0.13672 0.69922-0.40625 0.90625-0.27344 0.21094-0.66797 0.3125-1.1875 0.3125-0.53125 0-0.93359-0.10156-1.2031-0.3125-0.27344-0.20703-0.40625-0.50781-0.40625-0.90625 0-0.26953 0.066406-0.48828 0.20312-0.65625 0.14453-0.17578 0.35938-0.30078 0.64062-0.375zm0.23438-0.8125c0 0.15625 0.046875 0.28125 0.14062 0.375 0.09375 0.085937 0.22266 0.125 0.39062 0.125 0.15625 0 0.27344-0.039063 0.35938-0.125 0.09375-0.09375 0.14062-0.21875 0.14062-0.375 0-0.16406-0.046875-0.28906-0.14062-0.375-0.085938-0.082031-0.20312-0.125-0.35938-0.125-0.16797 0-0.29688 0.042969-0.39062 0.125-0.09375 0.085937-0.14062 0.21094-0.14062 0.375z"/>
  </symbol>
  <symbol id="s" overflow="visible">
   <path d="m2.4844-4.25v0.64062h-0.54688c-0.13672 0-0.23047 0.027344-0.28125 0.078125-0.054688 0.054688-0.078125 0.14062-0.078125 0.26562v0.20312h0.82812v0.70312h-0.82812v2.3594h-0.98438v-2.3594h-0.48438v-0.70312h0.48438v-0.20312c0-0.33203 0.09375-0.57812 0.28125-0.73438 0.1875-0.16406 0.47266-0.25 0.85938-0.25z"/>
  </symbol>
  <symbol id="d" overflow="visible">
   <path d="m1.9219-2.4375c-0.21875 0-0.38672 0.078125-0.5 0.23438-0.10547 0.15625-0.15625 0.38281-0.15625 0.67188 0 0.29297 0.050781 0.51562 0.15625 0.67188 0.11328 0.15625 0.28125 0.23438 0.5 0.23438s0.37891-0.078125 0.48438-0.23438c0.11328-0.15625 0.17188-0.37891 0.17188-0.67188 0-0.28906-0.058594-0.51562-0.17188-0.67188-0.10547-0.15625-0.26562-0.23438-0.48438-0.23438zm0-0.70312c0.53125 0 0.94141 0.14844 1.2344 0.4375 0.30078 0.28125 0.45312 0.67188 0.45312 1.1719 0 0.51172-0.15234 0.90625-0.45312 1.1875-0.29297 0.28125-0.70312 0.42188-1.2344 0.42188-0.52344 0-0.93359-0.14062-1.2344-0.42188-0.30469-0.28125-0.45312-0.67578-0.45312-1.1875 0-0.5 0.14844-0.89062 0.45312-1.1719 0.30078-0.28906 0.71094-0.4375 1.2344-0.4375z"/>
  </symbol>
  <symbol id="r" overflow="visible">
   <path d="m3.3125-2.5469c0.11328-0.1875 0.25391-0.33203 0.42188-0.4375 0.17578-0.10156 0.36719-0.15625 0.57812-0.15625 0.34375 0 0.60938 0.10938 0.79688 0.32812s0.28125 0.53906 0.28125 0.95312v1.8594h-0.98438v-1.5938-0.0625-0.125c0-0.21875-0.03125-0.375-0.09375-0.46875s-0.16797-0.14062-0.3125-0.14062c-0.1875 0-0.33594 0.078125-0.4375 0.23438-0.09375 0.14844-0.14062 0.36719-0.14062 0.65625v1.5h-0.98438v-1.5938c0-0.34375-0.03125-0.5625-0.09375-0.65625-0.054688-0.09375-0.15625-0.14062-0.3125-0.14062-0.1875 0-0.33594 0.078125-0.4375 0.23438-0.09375 0.14844-0.14062 0.36719-0.14062 0.65625v1.5h-0.98438v-3.0625h0.98438v0.45312c0.11328-0.17578 0.25-0.30469 0.40625-0.39062 0.15625-0.09375 0.32812-0.14062 0.51562-0.14062 0.20703 0 0.39062 0.054687 0.54688 0.15625 0.16406 0.10547 0.29688 0.25 0.39062 0.4375z"/>
  </symbol>
  <symbol id="q" overflow="visible">
   <path d="m3.5469-1.8594v1.8594h-0.98438v-1.4219c0-0.26953-0.007812-0.45312-0.015625-0.54688-0.011719-0.10156-0.03125-0.17578-0.0625-0.21875-0.042969-0.0625-0.09375-0.10938-0.15625-0.14062-0.0625-0.039063-0.13672-0.0625-0.21875-0.0625-0.21094 0-0.37109 0.078125-0.48438 0.23438-0.11719 0.15625-0.17188 0.375-0.17188 0.65625v1.5h-0.98438v-4.25h0.98438v1.6406c0.14453-0.17578 0.30078-0.30469 0.46875-0.39062 0.16406-0.09375 0.34766-0.14062 0.54688-0.14062 0.35156 0 0.61719 0.10938 0.79688 0.32812 0.1875 0.21875 0.28125 0.53906 0.28125 0.95312z"/>
  </symbol>
  <symbol id="p" overflow="visible">
   <path d="m0.51562-4.0781h1.1719l1.4844 2.7969v-2.7969h1v4.0781h-1.1719l-1.4844-2.7969v2.7969h-1z"/>
  </symbol>
  <symbol id="o" overflow="visible">
   <path d="m0.4375-1.1875v-1.875h0.98438v0.3125 0.625 0.5c0 0.24219 0.003906 0.41797 0.015625 0.53125 0.007812 0.10547 0.03125 0.18359 0.0625 0.23438 0.039062 0.0625 0.09375 0.11719 0.15625 0.15625 0.0625 0.03125 0.13281 0.046875 0.21875 0.046875 0.20703 0 0.36719-0.078125 0.48438-0.23438 0.11328-0.15625 0.17188-0.375 0.17188-0.65625v-1.5156h0.98438v3.0625h-0.98438v-0.4375c-0.14844 0.17969-0.30469 0.30859-0.46875 0.39062-0.16797 0.082031-0.35156 0.125-0.54688 0.125-0.35547 0-0.625-0.10938-0.8125-0.32812-0.17969-0.21875-0.26562-0.53125-0.26562-0.9375z"/>
  </symbol>
  <symbol id="n" overflow="visible">
   <path d="m3.5469-1.8594v1.8594h-0.98438v-1.4219c0-0.26953-0.007812-0.45312-0.015625-0.54688-0.011719-0.10156-0.03125-0.17578-0.0625-0.21875-0.042969-0.0625-0.09375-0.10938-0.15625-0.14062-0.0625-0.039063-0.13672-0.0625-0.21875-0.0625-0.21094 0-0.37109 0.078125-0.48438 0.23438-0.11719 0.15625-0.17188 0.375-0.17188 0.65625v1.5h-0.98438v-3.0625h0.98438v0.45312c0.14453-0.17578 0.30078-0.30469 0.46875-0.39062 0.16406-0.09375 0.34766-0.14062 0.54688-0.14062 0.35156 0 0.61719 0.10938 0.79688 0.32812 0.1875 0.21875 0.28125 0.53906 0.28125 0.95312z"/>
  </symbol>
  <symbol id="m" overflow="visible">
   <path d="m0.46875-3.0625h0.98438v3.0156c0 0.40625-0.10156 0.71094-0.29688 0.92188-0.19922 0.21875-0.48438 0.32812-0.85938 0.32812h-0.48438v-0.64062h0.17188c0.1875 0 0.3125-0.042969 0.375-0.125 0.070313-0.085938 0.10938-0.24609 0.10938-0.48438zm0-1.1875h0.98438v0.79688h-0.98438z"/>
  </symbol>
  <symbol id="l" overflow="visible">
   <path d="m2.9375-2.9688v0.79688c-0.125-0.082031-0.25781-0.14453-0.39062-0.1875-0.13672-0.050781-0.27734-0.078125-0.42188-0.078125-0.27344 0-0.48438 0.085938-0.64062 0.25-0.14844 0.15625-0.21875 0.375-0.21875 0.65625 0 0.29297 0.070313 0.51562 0.21875 0.67188 0.15625 0.15625 0.36719 0.23438 0.64062 0.23438 0.15625 0 0.30078-0.019531 0.4375-0.0625 0.13281-0.039062 0.25781-0.10938 0.375-0.20312v0.79688c-0.14844 0.0625-0.30469 0.10156-0.46875 0.125-0.15625 0.03125-0.3125 0.046875-0.46875 0.046875-0.55469 0-0.98438-0.14062-1.2969-0.42188s-0.46875-0.67578-0.46875-1.1875c0-0.5 0.15625-0.89062 0.46875-1.1719 0.3125-0.28906 0.74219-0.4375 1.2969-0.4375 0.16406 0 0.32031 0.015625 0.46875 0.046875 0.15625 0.03125 0.3125 0.074219 0.46875 0.125z"/>
  </symbol>
 </defs>
 <g>
  <path d="m245.73 313.38c12.656 0 22.848-10.305 22.848-22.848 0-12.656-10.305-22.848-22.848-22.848-12.543 0-22.848 10.305-22.848 22.848 0 12.656 10.191 22.848 22.848 22.848zm0-31.918c4.9297 0 9.0703 4.0312 9.0703 9.0703 0 4.9297-4.0312 9.0703-9.0703 9.0703-4.9297 0-9.0703-4.0312-9.0703-9.0703 0-4.9258 4.0312-9.0703 9.0703-9.0703z"/>
  <path d="m188.95 326.48c-3.8086 0-6.9453 3.1367-6.9453 6.9453 0 3.8086 3.1367 6.9453 6.9453 6.9453h29.793c3.8086 0 6.9453-3.1367 6.9453-6.9453 0-3.8086-3.1367-6.9453-6.9453-6.9453z"/>
  <path d="m291.76 311.59c-3.8086 0-6.9453 3.1367-6.9453 6.9453v7.9531h-7.9531c-3.8086 0-6.9453 3.1367-6.9453 6.9453 0 3.8086 3.1367 6.9453 6.9453 6.9453h7.9531v7.9531c0 3.8086 3.1367 6.9453 6.9453 6.9453 3.8086 0 6.9453-3.1367 6.9453-6.9453v-7.9531h7.9531c3.8086 0 6.9453-3.1367 6.9453-6.9453 0-3.8086-3.1367-6.9453-6.9453-6.9453h-7.9531v-7.9531c-0.003906-3.8125-3.1406-6.9453-6.9453-6.9453z"/>
  <path d="m307.89 464.69c11.09 0 20.496-7.3906 23.52-17.473h103.15c3.8086 0 6.9453-3.1367 6.9453-6.9453v-74.367c2.9102 0.22266 5.8242 0.33594 8.8477 0.33594 48.609 0 89.711-32.145 103.49-76.273 15.008-0.89453 26.992-13.328 26.992-28.559 0-15.793-12.879-28.672-28.672-28.672-15.793 0-28.672 12.879-28.672 28.672 0 11.535 6.832 21.391 16.574 25.984-12.434 37.742-47.938 65.07-89.711 65.07-3.0234 0-5.9375-0.11328-8.8477-0.44922v-222.88c0-3.8086-3.1367-6.9453-6.9453-6.9453s-6.9453 3.1367-6.9453 6.9453v220.64c-31.473-7.8398-56.895-31.473-66.977-61.938 10.078-4.4805 17.137-14.559 17.137-26.207 0-14.895-11.312-27.105-25.871-28.449-12.543-45.922-54.656-79.855-104.5-79.855s-91.953 33.938-104.5 79.855c-14.336 1.5664-25.426 13.777-25.426 28.449 0 15.793 12.879 28.672 28.672 28.672s28.672-12.879 28.672-28.672c0-11.984-7.3906-22.289-17.922-26.543 11.535-39.199 47.824-67.984 90.609-67.984 42.895 0 79.184 28.785 90.719 68.098-10.305 4.3672-17.586 14.559-17.586 26.434 0 15.008 11.648 27.328 26.32 28.559 11.535 37.07 42.449 65.633 80.754 73.922v69.441h-96.098c-2.9102-10.305-12.434-17.922-23.633-17.922-13.551 0-24.641 11.09-24.641 24.641-0.10547 13.328 10.984 24.414 24.535 24.414zm244.16-217.95c8.1758 0 14.785 6.6094 14.785 14.785s-6.6094 14.785-14.785 14.785-14.785-6.6094-14.785-14.785c0.003906-8.0625 6.7227-14.785 14.785-14.785zm-405.89 29.57c-8.1758 0-14.785-6.6094-14.785-14.785s6.6094-14.785 14.785-14.785c8.1758 0 14.785 6.6094 14.785 14.785s-6.6094 14.785-14.785 14.785zm188.27-14.785c0-8.1758 6.6094-14.785 14.785-14.785s14.785 6.6094 14.785 14.785-6.6094 14.785-14.785 14.785c-8.1797 0-14.785-6.6094-14.785-14.785zm-26.547 167.78c5.9375 0 10.754 4.8164 10.754 10.754s-4.8164 10.754-10.754 10.754-10.754-4.8164-10.754-10.754c0.003907-5.9375 4.8203-10.754 10.754-10.754z"/>
  <use x="70" y="576.800781" xlink:href="#f"/>
  <use x="74.109375" y="576.800781" xlink:href="#c"/>
  <use x="76.871094" y="576.800781" xlink:href="#a"/>
  <use x="80.667969" y="576.800781" xlink:href="#k"/>
  <use x="84.449219" y="576.800781" xlink:href="#b"/>
  <use x="87.125" y="576.800781" xlink:href="#a"/>
  <use x="90.921875" y="576.800781" xlink:href="#j"/>
  <use x="96.882812" y="576.800781" xlink:href="#i"/>
  <use x="100.890625" y="576.800781" xlink:href="#h"/>
  <use x="106.488281" y="576.800781" xlink:href="#g"/>
  <use x="111.175781" y="576.800781" xlink:href="#f"/>
  <use x="115.285156" y="576.800781" xlink:href="#e"/>
  <use x="119.390625" y="576.800781" xlink:href="#u"/>
  <use x="123.289062" y="576.800781" xlink:href="#t"/>
  <use x="70" y="582.398437" xlink:href="#s"/>
  <use x="72.4375" y="582.398437" xlink:href="#c"/>
  <use x="75.199219" y="582.398437" xlink:href="#d"/>
  <use x="79.046875" y="582.398437" xlink:href="#r"/>
  <use x="86.828125" y="582.398437" xlink:href="#b"/>
  <use x="89.507812" y="582.398437" xlink:href="#q"/>
  <use x="93.492188" y="582.398437" xlink:href="#a"/>
  <use x="99.242188" y="582.398437" xlink:href="#p"/>
  <use x="103.929688" y="582.398437" xlink:href="#d"/>
  <use x="107.773438" y="582.398437" xlink:href="#o"/>
  <use x="111.761719" y="582.398437" xlink:href="#n"/>
  <use x="117.699219" y="582.398437" xlink:href="#e"/>
  <use x="121.800781" y="582.398437" xlink:href="#c"/>
  <use x="124.5625" y="582.398437" xlink:href="#d"/>
  <use x="128.410156" y="582.398437" xlink:href="#m"/>
  <use x="130.332031" y="582.398437" xlink:href="#a"/>
  <use x="134.128906" y="582.398437" xlink:href="#l"/>
  <use x="137.449219" y="582.398437" xlink:href="#b"/>
 </g>
</svg>
